<svg width="32" height="33" viewBox="0 0 32 33" fill="none" xmlns="http://www.w3.org/2000/svg">
<path d="M5.04004 8.27344V24.7267" stroke="#96BAB2" stroke-width="1.5" stroke-linecap="round" stroke-linejoin="round"/>
<path d="M16 12.38C22.0531 12.38 26.96 10.5415 26.96 8.27344C26.96 6.00539 22.0531 4.16675 16 4.16675C9.947 4.16675 5.04004 6.00539 5.04004 8.27344C5.04004 10.5415 9.947 12.38 16 12.38Z" stroke="#96BAB2" stroke-width="2" stroke-linecap="round" stroke-linejoin="round"/>
<path d="M26.96 13.7534C26.96 16.0201 22.0534 17.8601 16 17.8601C9.94671 17.8601 5.04004 16.0201 5.04004 13.7534" stroke="#96BAB2" stroke-width="2" stroke-linecap="round" stroke-linejoin="round"/>
<path d="M26.96 19.2468C26.96 21.5135 22.0534 23.3535 16 23.3535C9.94671 23.3535 5.04004 21.5135 5.04004 19.2468" stroke="#96BAB2" stroke-width="2" stroke-linecap="round" stroke-linejoin="round"/>
<path d="M26.96 24.7266C26.96 26.9932 22.0534 28.8333 16 28.8333C9.94671 28.8333 5.04004 26.9932 5.04004 24.7266" stroke="#96BAB2" stroke-width="2" stroke-linecap="round" stroke-linejoin="round"/>
<path d="M26.96 8.27344V24.7267" stroke="#96BAB2" stroke-width="2" stroke-linecap="round" stroke-linejoin="round"/>
</svg>
