<svg width="321" height="651" viewBox="0 0 321 651" fill="none" xmlns="http://www.w3.org/2000/svg">
<path d="M317.917 -9.62354C317.917 126.558 317.917 262.74 317.917 398.922C317.917 487.844 321.572 583.155 317.774 672.03C316.786 695.162 300.419 637.429 299.459 634.078C267.098 521.137 247.101 378.891 223.481 253.066C213.426 199.504 200.633 150.22 191.716 95.3035C188.313 74.3458 186.565 69.7697 186.565 94.1872C186.565 210.812 187.533 327.759 185.992 444.316C185.6 474.022 187.763 577.219 176.12 602.451C165.855 624.694 56.1011 126.637 33.3201 67.3974C30.2232 59.344 27.9056 58.3024 26.7382 47.677C24.1438 24.0642 26.3482 96.8306 26.8813 121.349C33.3875 420.602 29.4568 722.109 29.4568 1021.79" stroke="#F5F5F5" stroke-opacity="0.05" stroke-width="50" stroke-linecap="round"/>
</svg>
