<svg width="1440" height="365" viewBox="0 0 1440 365" fill="none" xmlns="http://www.w3.org/2000/svg">
<path d="M283.657 -511.872C258.324 -410.103 226.763 -178.094 303.183 -64.2118C398.709 78.1409 263.413 322.578 154.46 392.746" stroke="#245D51" stroke-opacity="0.3" stroke-width="2"/>
<path d="M-60.5154 -225.642C120.582 -181.043 524.561 -127.705 691.7 -271.141C900.623 -450.435 1360.83 -205.925 1516.71 -6.3453" stroke="#245D51" stroke-opacity="0.3" stroke-width="2"/>
<path d="M-100.127 26.2062C80.9704 70.8047 484.949 124.143 652.088 -19.293C861.012 -198.588 1321.22 45.9224 1477.09 245.502" stroke="#245D51" stroke-opacity="0.3" stroke-width="2"/>
<path d="M-76.699 290.578C104.398 335.176 508.377 388.514 675.516 245.078C884.44 65.7838 1344.65 310.294 1500.52 509.874" stroke="#245D51" stroke-opacity="0.3" stroke-width="2"/>
<path d="M501.895 -494.081C476.562 -392.312 445.001 -160.303 521.422 -46.4205C616.947 95.9322 481.651 340.369 372.698 410.537" stroke="#245D51" stroke-opacity="0.3" stroke-width="2"/>
<path d="M731.908 -443.899C706.575 -342.13 675.014 -110.12 751.435 3.76179C846.96 146.114 711.664 390.551 602.711 460.72" stroke="#245D51" stroke-opacity="0.3" stroke-width="2"/>
<path d="M971.234 -427.167C945.901 -325.398 914.34 -93.3887 990.761 20.4935C1086.29 162.846 950.99 407.283 842.037 477.451" stroke="#245D51" stroke-opacity="0.3" stroke-width="2"/>
<path d="M1211.75 -369.901C1186.42 -268.132 1154.86 -36.1228 1231.28 77.7593C1326.8 220.112 1191.51 464.549 1082.55 534.717" stroke="#245D51" stroke-opacity="0.3" stroke-width="2"/>
</svg>
