<svg width="38" height="38" viewBox="0 0 38 38" fill="none" xmlns="http://www.w3.org/2000/svg">
<path d="M17.4443 6.55554H6.55545C5.73033 6.55554 4.93901 6.88332 4.35556 7.46677C3.77211 8.05021 3.44434 8.84154 3.44434 9.66665V31.4444C3.44434 32.2695 3.77211 33.0609 4.35556 33.6443C4.93901 34.2278 5.73033 34.5555 6.55545 34.5555H28.3332C29.1583 34.5555 29.9497 34.2278 30.5331 33.6443C31.1166 33.0609 31.4443 32.2695 31.4443 31.4444V20.5555" stroke="#E9F36A" stroke-width="2" stroke-linecap="round" stroke-linejoin="round"/>
<path d="M29.1107 4.22217C29.7295 3.60334 30.5688 3.25568 31.444 3.25568C32.3192 3.25568 33.1585 3.60334 33.7773 4.22217C34.3962 4.84101 34.7438 5.68034 34.7438 6.55551C34.7438 7.43068 34.3962 8.27 33.7773 8.88884L18.9996 23.6666L12.7773 25.2222L14.3329 19L29.1107 4.22217Z" stroke="#E9F36A" stroke-width="2" stroke-linecap="round" stroke-linejoin="round"/>
</svg>
