<svg width="54" height="54" viewBox="0 0 54 54" fill="none" xmlns="http://www.w3.org/2000/svg">
<path d="M40.3405 33.0666V43.5999C40.3405 45.7777 38.6071 47.5555 36.496 47.5555H17.5183C15.385 47.5555 13.6738 45.7777 13.6738 43.5999V10.4C13.6738 8.22217 15.4072 6.4444 17.5183 6.4444H36.496C38.6294 6.4444 40.3405 8.22217 40.3405 10.4V33.8444" stroke="#EAF471" stroke-width="2" stroke-linecap="round" stroke-linejoin="round"/>
<path d="M25.8994 13.2884H28.1216" stroke="#EAF471" stroke-width="2" stroke-linecap="round" stroke-linejoin="round"/>
<path d="M26.9976 42.577C28.2249 42.577 29.2198 41.582 29.2198 40.3547C29.2198 39.1274 28.2249 38.1325 26.9976 38.1325C25.7703 38.1325 24.7754 39.1274 24.7754 40.3547C24.7754 41.582 25.7703 42.577 26.9976 42.577Z" fill="#EAF471"/>
</svg>
