<svg width="22" height="22" viewBox="0 0 22 22" fill="none" xmlns="http://www.w3.org/2000/svg">
<path fill-rule="evenodd" clip-rule="evenodd" d="M6.98256 0.285645H15.0183C18.716 0.285645 21.7147 3.28431 21.7147 6.98207V15.0178C21.7147 18.7156 18.716 21.7142 15.0183 21.7142H6.98256C3.28479 21.7142 0.286133 18.7156 0.286133 15.0178V6.98207C0.286133 3.28431 3.28479 0.285645 6.98256 0.285645ZM15.0184 19.7054C17.6032 19.7054 19.7059 17.6027 19.7059 15.0179V6.98214C19.7059 4.39732 17.6032 2.29464 15.0184 2.29464H6.98264C4.39781 2.29464 2.29513 4.39732 2.29513 6.98214V15.0179C2.29513 17.6027 4.39781 19.7054 6.98264 19.7054H15.0184Z" fill="#EAF471"/>
<path fill-rule="evenodd" clip-rule="evenodd" d="M5.64355 11C5.64355 8.04148 8.04222 5.64282 11.0007 5.64282C13.9592 5.64282 16.3578 8.04148 16.3578 11C16.3578 13.9584 13.9592 16.3571 11.0007 16.3571C8.04222 16.3571 5.64355 13.9584 5.64355 11ZM7.65227 11C7.65227 12.8455 9.15493 14.3482 11.0004 14.3482C12.8459 14.3482 14.3486 12.8455 14.3486 11C14.3486 9.15313 12.8459 7.65179 11.0004 7.65179C9.15493 7.65179 7.65227 9.15313 7.65227 11Z" fill="#EAF471"/>
<ellipse cx="16.7587" cy="5.24192" rx="0.713826" ry="0.713844" fill="#EAF471"/>
</svg>
