<svg width="28" height="29" viewBox="0 0 28 29" fill="none" xmlns="http://www.w3.org/2000/svg">
<path d="M13.9999 1.5C10.5521 1.5 7.24555 2.86963 4.80759 5.30759C2.36963 7.74555 1 11.0521 1 14.4999C1 17.9477 2.36963 21.2543 4.80759 23.6922C7.24555 26.1302 10.5521 27.4998 13.9999 27.4998C17.4477 27.4998 20.7543 26.1302 23.1922 23.6922C25.6302 21.2543 26.9998 17.9477 26.9998 14.4999C26.9998 11.0521 25.6302 7.74555 23.1922 5.30759C20.7543 2.86963 17.4477 1.5 13.9999 1.5Z" stroke="#96BAB2" stroke-width="2" stroke-linecap="round" stroke-linejoin="round"/>
<path d="M1 14.5H26.9998" stroke="#96BAB2" stroke-width="2" stroke-linecap="round" stroke-linejoin="round"/>
<path d="M13.9998 1.5C17.2514 5.05984 19.0993 9.67959 19.1997 14.4999C19.0993 19.3202 17.2514 23.94 13.9998 27.4998C10.7481 23.94 8.90023 19.3202 8.7998 14.4999C8.90023 9.67959 10.7481 5.05984 13.9998 1.5Z" stroke="#96BAB2" stroke-width="2" stroke-linecap="round" stroke-linejoin="round"/>
</svg>
